<svg id="Слой_1" xmlns="http://www.w3.org/2000/svg" viewBox="0 0 52 37"><style>.st0,.st1{stroke:#000;stroke-width:.5;stroke-linecap:round;stroke-linejoin:round;stroke-miterlimit:10}.st1{stroke:#201600}</style><path class="st0" d="M5.9 16.7l1.9-1 3-4.4.9-.3 1 4.4-1.3.2-1-1.8-.7 2.9h3.2l3.4.8 1.3-.8 2.3 2.3.9-4.3 1.6 1.6 1-1.4 1.6-.4 2.3-2.1.4-1.1 1.9.3.8 1.1-1.4 2.9 3.5-1.8V13l1.3-.3 1.5 1.4 1.4-1.7v-1.2l2.4-1.7 1-1.4h1.5l2.7-5.4L46.6.3l.9 1.3-1.3 1.7.4 1.1 1.3.3L49 9.2V13l1.8 2.5.9 3.5-3.2-2-1.4-5.8-.8.1-.1 3.9-2.4 3.8-.6 5.7 1.5.3.7-.8 1.5 1.7 1.2 5.2-.1 3.3h-1.5l-.5-4.7-1.1 1.4-2.2-.5-1.9-1.5-2 .8.1 3.3-1.7.4-2.4 1.8-3-.4-1.1-.6-1.8.3.6.7-1.5.9-1.2-.6-2.2 1-3.3-1.7-1.3-2.9-1.1.1-1.3-1-.1-.8-4-.4-.7 2.2-2.6-1.2-1.3-2.1H6.2l-.3 3.4-1.6.5-.8 3.1-.6-.5-2.6-6.6 3.1-1.5-.5-2.8-.5-3 1.3-1.9-.4-1.1 1.8-2z"/><path class="st1" d="M46.5 23.9l2.8 4.1.9-.3-1.1-1.8-2.6-2.6zM17.8 15.4v-1.2l2.1-1.5 1.9-.9h-2.2l-1.9 1.1-1.1 1v1.5z"/></svg>