<svg version="1" id="Layer_1" xmlns="http://www.w3.org/2000/svg" viewBox="0 0 38.3 22.8"><style>.st0{fill:#231f20}</style><path class="st0" d="M23.3 0H1.4C.6 0 0 .6 0 1.4v15.7c0 .8.6 1.4 1.4 1.4h4.7c-.3.4-.5 1-.5 1.5 0 1.6 1.3 2.8 2.8 2.8s2.8-1.3 2.8-2.8c0-.6-.2-1.1-.5-1.5h12.5c.8 0 1.4-.6 1.4-1.4V1.4c.1-.8-.5-1.4-1.3-1.4zM37.6 11.5h-5.8c-.8 0-1.4-.6-1.4-1.4V7c0-.8.6-1.4 1.4-1.4h5.1c0-.8-.6-1.4-1.4-1.4h-7.9c-.8 0-1.4.6-1.4 1.4v11.5c0 .8.6 1.4 1.4 1.4h2.3c-.3.4-.5 1-.5 1.5 0 1.6 1.3 2.8 2.8 2.8 1.6 0 2.8-1.3 2.8-2.8 0-.6-.2-1.1-.5-1.5h2.3c.8 0 1.4-.6 1.4-1.4l-.6-5.6z"/></svg>